<svg width="16" height="16" viewBox="0 0 16 16" fill="none" xmlns="http://www.w3.org/2000/svg">
<path d="M9.33329 1.33334H3.99996C3.64634 1.33334 3.3072 1.47382 3.05715 1.72387C2.8071 1.97392 2.66663 2.31305 2.66663 2.66668V13.3333C2.66663 14.0733 3.25996 14.6667 3.99996 14.6667H12C12.74 14.6667 13.3333 14.0733 13.3333 13.3333V5.33334L9.33329 1.33334ZM12 13.3333H3.99996V2.66668H8.66663V6.00001H12V13.3333ZM8.59996 9.66668L10.5333 12.6667H9.33329L7.99996 10.4L6.66663 12.6667H5.46663L7.39996 9.66668L5.46663 6.66668H6.66663L7.99996 8.93334L9.33329 6.66668H10.5333L8.59996 9.66668Z" fill="#006F40"/>
</svg>
