<svg width="16" height="16" viewBox="0 0 16 16" fill="none" xmlns="http://www.w3.org/2000/svg">
<path d="M9.33329 1.33334L13.3333 5.33334V13.3333C13.3333 13.687 13.1928 14.0261 12.9428 14.2762C12.6927 14.5262 12.3536 14.6667 12 14.6667H3.99996C3.64634 14.6667 3.3072 14.5262 3.05715 14.2762C2.8071 14.0261 2.66663 13.687 2.66663 13.3333V2.66668C2.66663 2.31305 2.8071 1.97392 3.05715 1.72387C3.3072 1.47382 3.64634 1.33334 3.99996 1.33334H9.33329ZM12 13.3333V6.00001H8.66663V2.66668H3.99996V13.3333H12ZM7.46663 12.3067L5.63329 10.3067L6.40663 9.53334L7.46663 10.5867L9.85329 8.20001L10.6333 9.14001L7.46663 12.3067Z" fill="#006F40"/>
</svg>
