<svg width="16" height="16" viewBox="0 0 16 16" fill="none" xmlns="http://www.w3.org/2000/svg">
<path d="M9.33329 1.33334L13.3333 5.33334V13.3333C13.3333 13.687 13.1928 14.0261 12.9428 14.2762C12.6927 14.5262 12.3536 14.6667 12 14.6667H3.99996C3.64634 14.6667 3.3072 14.5262 3.05715 14.2762C2.8071 14.0261 2.66663 13.687 2.66663 13.3333V2.66668C2.66663 2.31305 2.8071 1.97392 3.05715 1.72387C3.3072 1.47382 3.64634 1.33334 3.99996 1.33334H9.33329ZM12 13.3333V6.00001H8.66663V2.66668H3.99996V13.3333H12ZM7.27996 8.20668C7.11996 7.69334 6.76663 6.05334 7.69996 6.02668C8.63329 6.00001 8.01996 8.10668 8.01996 8.10668C8.27996 9.10001 9.36663 9.81334 9.36663 9.81334C9.69996 9.71334 11.6 9.49334 11.3333 10.48C11.0466 11.4667 8.99996 10.54 8.99996 10.54C7.69996 10.6333 6.72663 10.98 6.72663 10.98C5.97329 12.3867 5.09329 13 4.73329 12.4067C4.28663 11.6667 6.15329 10.7133 6.15329 10.7133C7.11996 9.14668 7.26663 8.23334 7.27996 8.20668ZM7.71329 8.76668C7.44663 9.63334 6.91329 10.56 6.91329 10.56C7.47996 10.3333 8.71996 10.0733 8.71996 10.0733C7.95996 9.40668 7.72663 8.77334 7.71329 8.76668ZM9.80663 10.2133C9.80663 10.2133 10.9733 10.6467 11 10.4733C11.0466 10.2933 10.1133 10.1333 9.80663 10.2133ZM6.03329 11.2067C5.51996 11.4067 5.02663 12.26 5.14663 12.26C5.26663 12.2667 5.75329 11.86 6.03329 11.2067ZM7.71329 7.50668C7.71329 7.47334 7.99996 6.38668 7.71329 6.35334C7.51329 6.33334 7.70663 7.48001 7.71329 7.50668Z" fill="#006F40"/>
</svg>
