<svg width="16" height="16" viewBox="0 0 16 16" fill="none" xmlns="http://www.w3.org/2000/svg">
<path d="M9.33329 1.33334H3.99996C3.64634 1.33334 3.3072 1.47382 3.05715 1.72387C2.8071 1.97392 2.66663 2.31305 2.66663 2.66668V13.3333C2.66663 14.0733 3.25996 14.6667 3.99996 14.6667H12C12.74 14.6667 13.3333 14.0733 13.3333 13.3333V5.33334L9.33329 1.33334ZM12 13.3333H3.99996V2.66668H8.66663V6.00001H12V13.3333ZM11.5666 6.66668L10.1666 12.6667H9.23329L8.03329 8.14001L6.83329 12.6667H5.89996L4.43329 6.66668H5.43329L6.36663 11.2067L7.56663 6.66668H8.43329L9.63329 11.2067L10.5666 6.66668H11.5666Z" fill="#006F40"/>
</svg>
