<svg width="16" height="16" viewBox="0 0 16 16" fill="none" xmlns="http://www.w3.org/2000/svg">
<path d="M8 11.3333V10H9.33333V11.3333H8ZM9.33333 8.66667V7.33333H8V8.66667H9.33333ZM9.33333 6V4.66667H8V6H9.33333ZM6.66667 7.33333H8V6H6.66667V7.33333ZM6.66667 10H8V8.66667H6.66667V10ZM14 3.33333V12.6667C14 13.4 13.4 14 12.6667 14H3.33333C2.6 14 2 13.4 2 12.6667V3.33333C2 2.6 2.6 2 3.33333 2H12.6667C13.4 2 14 2.6 14 3.33333ZM12.6667 3.33333H8V4.66667H6.66667V3.33333H3.33333V12.6667H12.6667V3.33333Z" fill="#006F40"/>
</svg>
