<svg width="16" height="16" viewBox="0 0 16 16" fill="none" xmlns="http://www.w3.org/2000/svg">
<path d="M9.33329 1.33334H3.99996C3.64634 1.33334 3.3072 1.47382 3.05715 1.72387C2.8071 1.97392 2.66663 2.31305 2.66663 2.66668V13.3333C2.66663 13.687 2.8071 14.0261 3.05715 14.2762C3.3072 14.5262 3.64634 14.6667 3.99996 14.6667H12C12.3536 14.6667 12.6927 14.5262 12.9428 14.2762C13.1928 14.0261 13.3333 13.687 13.3333 13.3333V5.33334L9.33329 1.33334ZM12 13.3333H3.99996V2.66668H8.66663V6.00001H12V13.3333ZM6.66663 8.66668H4.66663V7.33334H6.66663V8.66668ZM9.33329 8.66668H7.33329V7.33334H9.33329V8.66668ZM6.66663 10.6667H4.66663V9.33334H6.66663V10.6667ZM9.33329 10.6667H7.33329V9.33334H9.33329V10.6667ZM6.66663 12.6667H4.66663V11.3333H6.66663V12.6667ZM9.33329 12.6667H7.33329V11.3333H9.33329V12.6667Z" fill="#006F40"/>
</svg>
