<?xml version="1.0" encoding="utf-8"?>
<svg version="1.1" xmlns:xlink="http://www.w3.org/1999/xlink" width="25px" height="35px" xmlns="http://www.w3.org/2000/svg">
  <g transform="matrix(1 0 0 1 -72 -11 )">
    <path d="M 0.81863975272883 11.9202892065699  C 1.0705289204073 11.9202892065699  1.32241820068901 11.7300723016425  1.32241820068901 11.413043320517  C 1.32241820068901 11.0960143393915  1.0705289204073 10.9057974344641  0.81863975272883 10.9057974344641  C 0.503778297822538 10.9057974344641  0.314861454906292 11.1594201318374  0.314861454906292 11.413043320517  C 0.314861454906292 11.7300723016425  0.566750585050355 11.9202892065699  0.81863975272883 11.9202892065699  Z M 1.57430727453146 13.5054341121973  C 1.76322415498211 13.5688399093672  1.95214111050159 13.4420283197515  1.95214111050159 13.1884051310718  C 1.95214111050159 13.1884051310718  1.88916881858197 13.1884051310718  1.95214111050159 13.1884051310718  C 1.88916881858197 13.1884051310718  1.95214111050159 13.1884051310718  1.95214111050159 13.1884051310718  C 1.95214111050159 12.9347819423922  1.76322415498211 12.7445652831179  1.57430727453146 12.7445652831179  C 1.3853903940808 12.7445652831179  1.19647351363014 12.9347829061086  1.19647351363014 13.1250003023424  C 1.19647351363014 13.3152176985762  1.3853903940808 13.5054341121973  1.57430727453146 13.5054341121973  Z M 0.629722909812583 9.57427547186319  C 0.944584364718875 9.57427547186319  1.25944574455635 9.32065230207993  1.25944574455635 8.94021750961224  C 1.25944574455635 8.55978271714456  0.944584364718875 8.3061595473613  0.629722909812583 8.3061595473613  C 0.251889148911269 8.3061595473613  0 8.62318852848677  0 8.94021750961224  C 0 9.25724649073772  0.314861454906292 9.57427547186319  0.629722909812583 9.57427547186319  Z M 19.7732991278949 21.2409417354067  C 19.7732991278949 20.9239127542812  19.5214099789836 20.6068837731557  19.1435762180823 20.6068837731557  C 18.765742457181 20.6068837731557  18.5138533082697 20.9239127542812  18.5138533082697 21.2409417354067  C 18.5138533082697 21.6213765278743  18.828714763176 21.8749996976576  19.1435762180823 21.8749996976576  C 19.4584376729886 21.8749996976576  19.7732991278949 21.5579707165321  19.7732991278949 21.2409417354067  Z M 10.4534005431091 20.1630427158322  C 10.2015113754306 20.2264485130021  10.0755667962832 20.4166654132055  10.1385390882028 20.6702886018851  C 10.2015113801224 20.860505998119  10.3274549927588 20.9873175830106  10.5163718732095 20.9873175830106  C 10.5163718732095 20.9873175830106  10.5793444044109 20.9873175830106  10.5793444044109 20.9873175830106  C 10.7052889882502 20.9873175830106  10.7682610361961 20.923912272423  10.8312333281157 20.7971006780832  C 10.8942056200354 20.7336948809132  10.8942058593172 20.6068832912975  10.8942058593172 20.4800716969577  C 10.8312335673976 20.2898543007238  10.7052887536601 20.1630427158322  10.5163718732095 20.1630427158322  C 10.5163718732095 20.1630427158322  10.4534005431091 20.1630427158322  10.4534005431091 20.1630427158322  Z M 3.96725445192939 30.1177532069199  C 3.90428216000977 29.927535810686  3.77833764654755 29.737319397065  3.58942076609689 29.737319397065  C 3.58942076609689 29.737319397065  3.52644823489541 29.737319397065  3.52644823489541 29.737319397065  C 3.40050365105617 29.737319397065  3.33753160311022 29.8007247076526  3.2745593111906 29.9275363019924  C 3.21158701927098 29.9909420991624  3.21158677998912 30.1177536887781  3.21158677998912 30.2445652831179  C 3.27455907190874 30.4347826793518  3.40050388564624 30.5615942642434  3.58942076609689 30.5615942642434  C 3.58942076609689 30.5615942642434  3.6523929970231 30.5615942642434  3.6523929970231 30.5615942642434  C 3.84130987747375 30.4981884670735  4.03022674384901 30.3079706031537  3.96725445192939 30.1177532069199  Z M 3.2745593111906 28.72282520622  C 3.2745593111906 28.4692020175403  3.0226700309089 28.2155793201671  2.77078086323042 28.2155793201671  C 2.45591940832413 28.2155793201671  2.26700256540788 28.4692020175403  2.26700256540788 28.72282520622  C 2.26700256540788 28.9764483948996  2.51889169555195 29.2300710922729  2.77078086323042 29.2300710922729  C 3.08564231813671 29.2300710922729  3.2745593111906 28.9764483948996  3.2745593111906 28.72282520622  Z M 2.32997479633409 27.5181165291867  C 2.64483625124038 27.5181165291867  2.95969785628431 27.2644933594034  2.95969785628431 26.8840585669357  C 2.95969785628431 26.5036237744681  2.64483625124038 26.2500006046848  2.32997479633409 26.2500006046848  C 1.95214103543277 26.2500006046848  1.7002518865215 26.5670295858103  1.7002518865215 26.8840585669357  C 1.7002518865215 27.2010875480612  2.01511334142779 27.5181165291867  2.32997479633409 27.5181165291867  Z M 20.0881605828012 19.2753618105548  C 20.0881605828012 18.9583328294293  19.8362714338899 18.6413038483039  19.4584376729886 18.6413038483039  C 19.0806039120873 18.6413038483039  18.828714763176 18.9583328294293  18.828714763176 19.2753618105548  C 18.828714763176 19.5923907916803  19.1435762180823 19.9094197728058  19.4584376729886 19.9094197728058  C 19.8362714338899 19.9094197728058  20.0881605828012 19.5923907916803  20.0881605828012 19.2753618105548  Z M 8.69017567497319 19.9728258109048  C 8.69017567497319 20.1630432071386  8.87909278063031 20.2898547920302  9.06800966108097 20.2898547920302  C 9.06800966108097 20.2898547920302  9.13098219228246 20.2898547920302  9.13098219228246 20.2898547920302  C 9.25692677612169 20.2898547920302  9.31989882406764 20.2264494814426  9.38287111598726 20.0996378871028  C 9.44584340790688 20.0362320899329  9.44584364718875 19.9094205003171  9.44584364718875 19.7826089059773  C 9.38287135526913 19.5923915097435  9.25692654153163 19.4655799248518  9.06800966108097 19.4655799248518  C 9.06800966108097 19.4655799248518  9.00503712987948 19.4655799248518  9.00503712987948 19.4655799248518  C 8.87909254604025 19.4655799248518  8.8161204980943 19.5289852354395  8.75314820617468 19.6557968297793  C 8.69017591425506 19.7192026269492  8.69017567497319 19.8460142165649  8.69017567497319 19.9728258109048  Z M 21.0957174787215 22.1286238500537  C 21.1586897706412 21.9384064538198  21.0327466365685 21.6847813424315  20.8438297561179 21.6213755452616  C 20.7808574641982 21.6213755452616  20.7808569856345 21.6213755452616  20.7178846937149 21.6213755452616  C 20.5289678132642 21.6213755452616  20.4030242006279 21.7481881033178  20.3400519087082 21.8749996976576  C 20.2770796167886 22.0652170938914  20.3400504636334 22.3188397865406  20.5919396313119 22.3822455837105  C 20.6549119232315 22.3822455837105  20.6549124017953 22.3822455837105  20.7178846937149 22.3822455837105  C 20.9068015741655 22.3822455837105  21.0327451868019 22.2554354443935  21.0957174787215 22.1286238500537  Z M 9.06800966108097 0.760869584935374  C 9.00503736916135 0.951086981169217  9.19395447951027 1.14130430181746  9.44584364718875 1.14130430181746  C 9.6347605276394 1.14130430181746  9.82367703274596 0.951086981169217  9.82367703274596 0.760869584935374  C 9.82367703274596 0.57065218870153  9.6347605276394 0.380434792467687  9.44584364718875 0.380434792467687  C 9.25692676673809 0.380434792467687  9.06800966108097 0.57065218870153  9.06800966108097 0.760869584935374  Z M 7.8085638414558 16.4855070185246  C 7.61964696100515 16.4855070185246  7.43072985534803 16.6757246415152  7.43072985534803 16.8659420377491  C 7.43072985534803 17.0561594339829  7.61964696100515 17.2463770569735  7.8085638414558 17.2463770569735  C 7.99748072190646 17.2463770569735  8.18639782756358 17.0561594339829  8.18639782756358 16.8659420377491  C 8.18639782756358 16.6757246415152  7.99748072190646 16.4855070185246  7.8085638414558 16.4855070185246  Z M 9.82367703274596 16.675723923452  C 9.6347601522953 16.675723923452  9.44584364718875 16.8025357539968  9.44584364718875 17.0561589426765  C 9.44584364718875 17.2463763389103  9.6347601522953 17.436593961901  9.82367703274596 17.436593961901  C 10.0125939131966 17.436593961901  10.2015104183032 17.2463763389103  10.2015104183032 17.0561589426765  C 10.2015104183032 16.8659415464427  10.0125939131966 16.675723923452  9.82367703274596 16.675723923452  Z M 9.82367703274596 24.9184774327143  C 9.88664932466557 24.7282600364805  9.69773281486722 24.5380436228594  9.44584364718875 24.5380436228594  C 9.25692676673809 24.5380436228594  9.06800966108097 24.7282600364805  9.06800966108097 24.9184774327143  C 9.06800966108097 25.1086948289482  9.25692676673809 25.2989136613084  9.44584364718875 25.2989136613084  C 9.6347605276394 25.2989136613084  9.82367703274596 25.1086948289482  9.82367703274596 24.9184774327143  Z M 19.5214102041901 34.0489130566236  C 19.6473547880293 33.8586956603897  19.5214094910363 33.6050729677406  19.3324926105856 33.5416671705707  C 19.269520318666 33.5416671705707  19.2695210412034 33.5416671705707  19.2065487492838 33.5416671705707  C 19.0176318688331 33.5416671705707  18.8916870550956 33.6684773098877  18.828714763176 33.7952889042275  C 18.7657424712564 33.9221004985674  18.7657424712564 33.9855062910132  18.828714763176 34.112317885353  C 18.8916870550956 34.2391294796928  18.9546588637597 34.3025347902805  19.0176311556793 34.3025347902805  C 19.080603447599 34.3025347902805  19.0806039261627 34.3025347902805  19.1435762180823 34.3025347902805  C 19.332493098533 34.3025347902805  19.4584379122705 34.1757246509634  19.5214102041901 34.0489130566236  Z M 2.95969785628431 23.8405784131399  C 2.95969785628431 23.7771726159699  3.02267008721051 23.7771735844104  3.02267008721051 23.7771735844104  C 3.21158696766117 23.7137677872405  3.40050383403642 23.5235499233208  3.3375315421168 23.3333325270869  C 3.27455925019719 23.1431151308531  3.14861473673497 23.0163035459615  2.95969785628431 23.0163035459615  C 2.95969785628431 23.0163035459615  2.89672532508283 23.0163035459615  2.89672532508283 23.0163035459615  C 2.77078074124359 23.0163035459615  2.70780869329764 23.0797088565491  2.64483640137802 23.2065204508889  C 2.5818641094584 23.2699262480588  2.58186387017653 23.3967378376746  2.58186387017653 23.5235494320144  C 2.64483616209615 23.7137668282482  2.77078097583365 23.8405784131399  2.95969785628431 23.8405784131399  Z M 2.39294717739793 24.5380436228594  C 2.07808572249164 24.5380436228594  1.88916872943775 24.7282605277869  1.88916872943775 25.0452895089123  C 1.88916872943775 25.3623184900378  2.14105800971945 25.5525353949653  2.39294717739793 25.5525353949653  C 2.70780863230422 25.5525353949653  2.89672532508283 25.298912697592  2.89672532508283 25.0452895089123  C 2.89672532508283 24.7916663202327  2.6448363450764 24.5380436228594  2.39294717739793 24.5380436228594  Z M 1.82619649851155 4.56521720726985  C 1.82619649851155 4.8188403959495  2.01511330389338 5.00905796225095  2.20403018434404 5.00905796225095  C 2.3929470647947 5.00905796225095  2.58186387017653 4.8188406416027  2.58186387017653 4.62862324536886  C 2.58186387017653 4.43840584913501  2.3929470647947 4.24818822614437  2.20403018434404 4.24818822614437  C 2.01511330389338 4.18478242897446  1.82619649851155 4.374999811036  1.82619649851155 4.56521720726985  Z M 20.8438297561179 33.2246381894452  C 20.7808574641982 33.1612323922753  20.7178842151512 33.0344188657786  20.5919396313119 33.0344188657786  C 20.5289673393923 33.0344188657786  20.5289668608286 33.0344188657786  20.465994568909 33.0344188657786  C 20.2770776884583 33.0344188657786  20.1511328747208 33.1612314238348  20.0881605828012 33.2880430181746  C 20.0251882908816 33.4782604144085  20.0881627410298 33.7318831070576  20.3400519087082 33.7952889042275  C 20.4030242006279 33.7952889042275  20.4030222769893 33.7952889042275  20.465994568909 33.7952889042275  C 20.6549114493596 33.7952889042275  20.7808574641982 33.6684787649105  20.8438297561179 33.5416671705707  C 20.9068020480375 33.4148555762308  20.9068020480375 33.351449783785  20.8438297561179 33.2246381894452  Z M 5.41561666405787 16.3586949423265  C 5.41561666405787 16.5489123385604  5.60453376971499 16.739129961551  5.79345065016565 16.739129961551  C 5.98236753061631 16.739129961551  6.17128403572286 16.5489123385604  6.17128403572286 16.3586949423265  C 6.17128403572286 16.1684775460927  5.98236753061631 15.9782611324717  5.79345065016565 15.9782611324717  C 5.60453376971499 15.9782611324717  5.41561666405787 16.1684775460927  5.41561666405787 16.3586949423265  Z M 3.2745593111906 3.0434783397415  C 3.2745593111906 3.23369573597534  3.46347611657244 3.42391305662358  3.6523929970231 3.42391305662358  C 3.84130987747375 3.42391305662358  4.03022668285559 3.23369573597534  4.03022668285559 3.0434783397415  C 4.03022668285559 2.85326094350765  3.84130987747375 2.66304332051701  3.6523929970231 2.66304332051701  C 3.46347611657244 2.66304332051701  3.2745593111906 2.85326094350765  3.2745593111906 3.0434783397415  Z M 2.64483640137802 14.1394920744482  C 2.45591952092736 14.1394920744482  2.26700256540788 14.3297096974389  2.26700256540788 14.5199270936727  C 2.26700256540788 14.7101444899066  2.45591952092736 14.9003621128972  2.64483640137802 14.9003621128972  C 2.83375328182868 14.9003621128972  3.02267008721051 14.7101444899066  3.02267008721051 14.5199270936727  C 3.02267008721051 14.3297096974389  2.83375328182868 14.1394920744482  2.64483640137802 14.1394920744482  Z M 0.692695215807606 6.53079713212169  C 0.692695215807606 6.78442032080135  0.881612058723852 7.03804362285941  1.19647351363014 7.03804362285941  C 1.51133496853644 7.03804362285941  1.7002518865215 6.78442032080135  1.7002518865215 6.53079713212169  C 1.7002518865215 6.27717394344204  1.44836268130862 6.02355064138398  1.19647351363014 6.02355064138398  C 0.881612058723852 6.02355064138398  0.692695215807606 6.27717394344204  0.692695215807606 6.53079713212169  Z M 3.96725445192939 22.0652166025851  C 3.96725445192939 21.9384050082452  3.77833764654755 21.8115948689282  3.58942076609689 21.8115948689282  C 3.58942076609689 21.8115948689282  3.52644823489541 21.8115948689282  3.52644823489541 21.8115948689282  C 3.33753135444475 21.8750006660981  3.1486144880695 22.0652161112787  3.21158677998912 22.2554335075125  C 3.27455907190874 22.4456509037463  3.40050388564624 22.572462488638  3.58942076609689 22.572462488638  C 3.58942076609689 22.572462488638  3.6523929970231 22.572462488638  3.6523929970231 22.572462488638  C 3.77833758086233 22.572462488638  3.84130992908357 22.5090571780504  3.90428222100318 22.3822455837105  C 3.9672545129228 22.3188397865406  3.96725445192939 22.1920281969249  3.96725445192939 22.0652166025851  Z M 15.3022662280053 34.4293468664785  C 15.3022662280053 34.3659410693086  15.2392944193412 34.3025357587209  15.113349835502 34.239129961551  C 15.0503775435824 34.239129961551  15.0503770650186 34.239129961551  14.987404773099 34.239129961551  C 14.7984878926484 34.239129961551  14.6725430789109 34.3659425196072  14.6095707869912 34.4927541139471  C 14.5465984950716 34.6195657082869  14.5465984950716 34.6829715007327  14.6095707869912 34.8097830950726  C 14.6725430789109 34.9365946894124  14.7355160886761 35  14.7984883805957 35  C 14.8614606725153 35  14.8614599499779 35  14.9244322418975 35  C 15.1133491223482 35  15.2392939360857 34.8731874419438  15.3022662280053 34.746375847604  C 15.3652385199249 34.6195642532641  15.3652385199249 34.5561584608183  15.3022662280053 34.4293468664785  Z M 9.82367703274596 27.8985503390416  C 10.0125939131966 27.8985503390416  10.2015104183032 27.7717397178663  10.2015104183032 27.5181165291867  C 10.2015104183032 27.3278991329528  10.0125939131966 27.1376803005926  9.82367703274596 27.1376803005926  C 9.6347601522953 27.1376803005926  9.44584364718875 27.3278991329528  9.44584364718875 27.5181165291867  C 9.44584364718875 27.7083339254205  9.6347601522953 27.8985503390416  9.82367703274596 27.8985503390416  Z M 8.2493697582145 32.2735512460688  C 8.2493697582145 32.1467396517289  8.06045288714745 32.0199270936727  7.93450830330821 32.0199270936727  C 7.93450830330821 32.0199270936727  7.87153637265729 32.0199270936727  7.87153637265729 32.0199270936727  C 7.74559178881805 32.0199270936727  7.68261914032153 32.0833324042603  7.61964684840192 32.2101439986002  C 7.5566745564823 32.33695559294  7.49370238654951 32.4003623538263  7.49370238654951 32.4637681509962  C 7.55667467846913 32.6539855472301  7.68261949220663 32.7807971321217  7.87153637265729 32.7807971321217  C 7.87153637265729 32.7807971321217  7.93450830330821 32.7807971321217  7.93450830330821 32.7807971321217  C 8.06045288714745 32.7807971321217  8.12342553564396 32.7173918215341  8.18639782756358 32.5905802271942  C 8.2493701194832 32.5271744300243  8.2493697582145 32.4003628404086  8.2493697582145 32.2735512460688  Z M 10.8312333281157 23.7771735844104  C 10.8312333281157 23.5869561881766  10.7052897107876 23.3967397745555  10.4534005431091 23.3967397745555  C 10.2644836626584 23.3967397745555  10.0755665570013 23.5869561881766  10.0755665570013 23.7771735844104  C 10.0755665570013 23.9673909806443  10.2644836626584 24.1576073942653  10.4534005431091 24.1576073942653  C 10.6423174235598 24.1576073942653  10.8312333281157 23.9673909806443  10.8312333281157 23.7771735844104  Z M 9.50881557783966 26.3768102621436  C 9.50881557783966 26.1865928659098  9.31989907273311 25.9963764522888  9.13098219228246 25.9963764522888  C 8.9420653118318 25.9963764522888  8.75314820617468 26.1865928659098  8.75314820617468 26.3768102621436  C 8.75314820617468 26.5670276583775  8.9420653118318 26.7572464907377  9.13098219228246 26.7572464907377  C 9.31989907273311 26.7572464907377  9.50881557783966 26.5670276583775  9.50881557783966 26.3768102621436  Z M 12.6574307274531 19.2753618105548  C 12.9093198951316 19.2753618105548  13.1612085748628 19.0851449056274  13.1612085748628 18.7681159245019  C 13.1612085748628 18.4510869433764  12.9093198951316 18.2608688290794  12.6574307274531 18.2608688290794  C 12.4055415597747 18.2608688290794  12.1536516789424 18.5144927358222  12.1536516789424 18.7681159245019  C 12.1536516789424 19.0217391131815  12.4055415597747 19.2753618105548  12.6574307274531 19.2753618105548  Z M 15.9949616690194 19.9728258109048  C 16.18387854947 19.9728258109048  16.3727956551272 19.7826081879141  16.3727956551272 19.5923907916803  C 16.3727956551272 19.4021733954464  16.18387854947 19.2119557724558  15.9949616690194 19.2119557724558  C 15.8060447885687 19.2119557724558  15.6171276829116 19.4021733954464  15.6171276829116 19.5923907916803  C 15.6171276829116 19.7826081879141  15.8060447885687 19.9728258109048  15.9949616690194 19.9728258109048  Z M 14.3576818632864 31.3224643026924  C 14.3576818632864 31.0688411140127  14.1687647576293 30.9420280740983  13.9798478771787 30.9420280740983  C 13.9798478771787 30.9420280740983  13.9168765470783 30.9420280740983  13.9168765470783 30.9420280740983  C 13.7909319632391 30.9420280740983  13.727958714192 31.0054333846859  13.6649864222724 31.1322449790257  C 13.6020141303528 31.1956507761956  13.602015092172 31.3224623658114  13.602015092172 31.4492739601512  C 13.6649873840916 31.639491356385  13.790930996728 31.7663029412767  13.9798478771787 31.7663029412767  C 13.9798478771787 31.7663029412767  14.0428204083802 31.7663029412767  14.0428204083802 31.7663029412767  C 14.2317372888308 31.7028971441068  14.4206541552061 31.5126816989262  14.3576818632864 31.3224643026924  Z M 11.5869013003313 27.1376803005926  C 11.5869013003313 26.9474629043588  11.460956481902 26.7572464907377  11.2090673142235 26.7572464907377  C 11.0201504337729 26.7572464907377  10.8312333281157 26.9474629043588  10.8312333281157 27.1376803005926  C 10.8312333281157 27.3278976968265  11.0201504337729 27.5181165291867  11.2090673142235 27.5181165291867  C 11.3979841946742 27.5181165291867  11.5869013003313 27.3278976968265  11.5869013003313 27.1376803005926  Z M 13.1612085748628 22.1920286787831  C 13.1612085748628 22.1920286787831  13.2241813453461 22.1920286787831  13.2871536372657 22.1920286787831  C 13.4760705177164 22.1920286787831  13.6020141303528 22.0652161207269  13.6649864222724 21.938404526387  C 13.727958714192 21.8115929320472  13.727958714192 21.7481871396014  13.6649864222724 21.6213755452616  C 13.6020141303528 21.4945639509217  13.5390423216887 21.4311586403341  13.4760700297691 21.4311586403341  C 13.4130977378494 21.4311586403341  13.4130972592857 21.4311586403341  13.3501249673661 21.4311586403341  C 13.1612080869154 21.4311586403341  13.0352644742791 21.5579711983903  12.9722921823594 21.6847827927302  C 12.9093198904398 21.81159438707  12.9093198904398 21.8750001795158  12.9722921823594 22.0018117738556  C 13.0352644742791 22.1286233681955  13.0982362829431 22.1920286787831  13.1612085748628 22.1920286787831  Z M 14.6725433181927 21.8115948689282  C 14.798487902032 21.8115948689282  14.987404773099 21.684782310872  14.987404773099 21.5579707165321  C 15.0503770650186 21.4311591221923  15.0503770650186 21.3677533297465  14.987404773099 21.2409417354067  C 14.9244324811794 21.1141301410668  14.8614606725153 21.0507248304792  14.7984883805957 21.0507248304792  C 14.7355160886761 21.0507248304792  14.7355156101124 21.0507248304792  14.6725433181927 21.0507248304792  C 14.4836264377421 21.0507248304792  14.3576816240046 21.1775349697963  14.294709332085 21.3043465641361  C 14.2317370401653 21.4945639603699  14.2947102892124 21.7481890717583  14.5465994568909 21.8115948689282  C 14.6095717488105 21.8115948689282  14.6095710262731 21.8115948689282  14.6725433181927 21.8115948689282  Z M 12.3425692725469 32.1467391698707  C 12.3425692725469 31.8931159811911  12.1536521668897 31.7663029412767  11.9647352864391 31.7663029412767  C 11.9647352864391 31.7663029412767  11.9017627552376 31.7663029412767  11.9017627552376 31.7663029412767  C 11.7758181713984 31.7663029412767  11.7128461234524 31.8297106706035  11.6498738315328 31.9565222649433  C 11.5869015396132 32.0199280621132  11.5869013003313 32.1467396517289  11.5869013003313 32.2735512460688  C 11.6498735922509 32.4637686423026  11.7758184059884 32.5905802271942  11.9647352864391 32.5905802271942  C 11.9647352864391 32.5905802271942  12.0277078176406 32.5905802271942  12.0277078176406 32.5905802271942  C 12.2166246980912 32.5271744300243  12.4055415644665 32.3369565661046  12.3425692725469 32.1467391698707  Z M 12.4685131338487 24.1576073942653  C 12.4685131338487 23.9673899980315  12.2795960281916 23.7771735844104  12.0906791477409 23.7771735844104  C 11.9017622672903 23.7771735844104  11.7128463627343 23.9673899980315  11.7128463627343 24.1576073942653  C 11.7128463627343 24.3478247904992  11.9017622672903 24.5380436228594  12.0906791477409 24.5380436228594  C 12.2795960281916 24.5380436228594  12.4685131338487 24.3478247904992  12.4685131338487 24.1576073942653  Z M 10.3904280119076 32.4637681509962  C 10.327455719988 32.2101449623166  10.2015109062505 32.0833319224022  10.0125940257998 32.0833319224022  C 10.0125940257998 32.0833319224022  9.94962149459836 32.0833319224022  9.94962149459836 32.0833319224022  C 9.82367691075912 32.0833319224022  9.76070486281317 32.1467396517289  9.69773257089355 32.2735512460688  C 9.63476027897394 32.3369570432387  9.63476003969207 32.4637686328544  9.63476003969207 32.5905802271942  C 9.69773233161169 32.7807976234281  9.82367714534919 32.9076092083197  10.0125940257998 32.9076092083197  C 10.0125940257998 32.9076092083197  10.0755665570013 32.9076092083197  10.0755665570013 32.9076092083197  C 10.264483437452 32.8442034111498  10.4534003038272 32.6539855472301  10.3904280119076 32.4637681509962  Z M 18.1360193221619 34.112317885353  C 18.0730470302423 34.0489120881831  17.9471026903768 33.9855067775955  17.8841303984571 33.9221009804256  C 17.8211581065375 33.9221009804256  17.8211576279738 33.9221009804256  17.7581853360542 33.9221009804256  C 17.5692684556035 33.9221009804256  17.4433248429671 34.0489135384818  17.3803525510475 34.1757251328216  C 17.3173802591279 34.3659425290554  17.3803523070739 34.6195652217046  17.6322414747523 34.6829710188745  C 17.6952137666719 34.6829710188745  17.6952130441345 34.6829710188745  17.7581853360542 34.6829710188745  C 17.9471022165048 34.6829710188745  18.0730470302423 34.5561584608183  18.1360193221619 34.4293468664785  C 18.1989916140816 34.3025352721386  18.1989916140816 34.2391294796928  18.1360193221619 34.112317885353  Z M 4.97481104757446 21.0507248304792  C 4.91183875565484 20.7971016417996  4.78589424219263 20.6702886018851  4.59697736174197 20.6702886018851  C 4.59697736174197 20.6702886018851  4.53400513081577 20.6702886018851  4.53400513081577 20.6702886018851  C 4.40806054697653 20.6702886018851  4.3450881987553 20.7336963312119  4.28211590683568 20.8605079255518  C 4.21914361491606 20.9239137227217  4.21914367590948 21.0507253123374  4.21914367590948 21.1775369066772  C 4.2821159678291 21.3677543029111  4.40806048129131 21.4945658878027  4.59697736174197 21.4945658878027  C 4.59697736174197 21.4945658878027  4.65994959266817 21.4945658878027  4.65994959266817 21.4945658878027  C 4.84886647311883 21.4311600906328  5.03778333949408 21.2409422267131  4.97481104757446 21.0507248304792  Z M 5.35264473340696 2.28260860363492  C 5.54156161385761 2.28260860363492  5.79345065016565 2.09239128298668  5.79345065016565 1.90217388675284  C 5.79345065016565 1.71195649051899  5.60453354450853 1.52173916987075  5.41561666405787 1.52173916987075  C 5.22669978360722 1.52173916987075  4.97481104757446 1.64855069807318  4.97481104757446 1.90217388675284  C 4.97481104757446 2.09239128298668  5.1637278529563 2.28260860363492  5.35264473340696 2.28260860363492  Z M 13.7909314846753 34.3659420377491  C 13.7279591927557 34.2391304434092  13.6649873840916 34.1757251328216  13.602015092172 34.1757251328216  C 13.5390428002524 34.1757251328216  13.5390423216887 34.1757251328216  13.4760700297691 34.1757251328216  C 13.2871531493184 34.1757251328216  13.1612083355809 34.3025352721386  13.0982360436613 34.4293468664785  C 13.0352637517417 34.5561584608183  13.0352637517417 34.6195642532641  13.0982360436613 34.746375847604  C 13.1612083355809 34.8731874419438  13.2241813453461 34.9365927525314  13.2871536372657 34.9365927525314  C 13.3501259291853 34.9365927525314  13.3501252066479 34.9365927525314  13.4130974985676 34.9365927525314  C 13.6020143790182 34.9365927525314  13.7279591927557 34.8097826132144  13.7909314846753 34.6829710188745  C 13.853903776595 34.5561594245347  13.853903776595 34.4927536320889  13.7909314846753 34.3659420377491  Z M 18.828714763176 25.6793474711633  C 18.828714763176 25.3623184900378  18.5768256142647 25.0452895089123  18.1989918533634 25.0452895089123  C 17.8211580924621 25.0452895089123  17.5692689435508 25.3623184900378  17.5692689435508 25.6793474711633  C 17.5692689435508 25.9963764522887  17.8841303984571 26.3134054334142  18.1989918533634 26.3134054334142  C 18.5138533082697 26.3134054334142  18.828714763176 25.9963764522887  18.828714763176 25.6793474711633  Z M 4.91183881664826 31.0688401502963  C 4.91183881664826 30.8786227540625  4.72292201126642 30.7518111691708  4.53400513081577 30.7518111691708  C 4.53400513081577 30.7518111691708  4.47103259961428 30.7518111691708  4.47103259961428 30.7518111691708  C 4.28211571916363 30.8152169663407  4.09319885278837 31.0054348302605  4.15617114470799 31.1956522264943  C 4.21914343662761 31.3858696227282  4.34508825036511 31.5126812076198  4.53400513081577 31.5126812076198  C 4.53400513081577 31.5126812076198  4.59697736174197 31.5126812076198  4.59697736174197 31.5126812076198  C 4.72292194558121 31.5126812076198  4.78589429380244 31.4492758970322  4.84886658572206 31.3224643026924  C 4.91183887764168 31.2590585055224  4.97481110856788 31.1322459474662  4.91183881664826 31.0688401502963  Z M 16.1209067314224 2.02898550943726  C 16.1209067314224 2.21920290567111  16.3098226359783 2.40942022631935  16.498739516429 2.40942022631935  C 16.6876563968797 2.40942022631935  16.8765735025368 2.21920290567111  16.8765735025368 2.02898550943726  C 16.8765735025368 1.83876811320342  16.6876563968797 1.64855064138398  16.498739516429 1.64855064138398  C 16.3098226359783 1.64855064138398  16.1209067314224 1.83876811320342  16.1209067314224 2.02898550943726  Z M 16.7506296412349 34.3659420377491  C 16.6876573493153 34.2391304434092  16.6246841002682 34.1757251328216  16.498739516429 34.1757251328216  C 16.4357672245094 34.1757251328216  16.4357679470468 34.1757251328216  16.3727956551272 34.1757251328216  C 16.1838787746765 34.1757251328216  16.057933960939 34.3025352721386  15.9949616690194 34.4293468664785  C 15.9319893770998 34.6195642627123  15.9949614250457 34.8731869553615  16.2468505927242 34.9365927525314  C 16.3098228846438 34.9365927525314  16.3098233632075 34.9365927525314  16.3727956551272 34.9365927525314  C 16.5617125355778 34.9365927525314  16.6876573493153 34.8097826132144  16.7506296412349 34.6829710188745  C 16.8136019331546 34.5561594245347  16.8136019331546 34.4927536320889  16.7506296412349 34.3659420377491  Z M 7.49370238654951 19.9728258109048  C 7.61964697038875 20.0362316080747  7.6826190183347 19.9728253290466  7.74559131025432 19.8460137347067  C 7.80856360217394 19.7826079375368  7.8085638414558 19.6557963479211  7.8085638414558 19.5289847535813  C 7.74559154953619 19.3387673573474  7.61964673579869 19.2119557724558  7.43072985534803 19.2119557724558  C 7.43072985534803 19.2119557724558  7.36775792469711 19.2119557724558  7.36775792469711 19.2119557724558  C 7.17884104424645 19.2753615696257  6.9899241778712 19.4655794335455  7.05289646979082 19.6557968297793  C 7.11586876171044 19.8460142260131  7.24181297489737 19.9728258109048  7.43072985534803 19.9728258109048  C 7.43072985534803 19.9728258109048  7.49370238654951 19.9728258109048  7.49370238654951 19.9728258109048  Z M 5.91939511201806 20.4800716969577  C 5.91939511201806 20.4166658997878  5.98236764321954 20.4166668682283  5.98236764321954 20.4166668682283  C 6.10831222705878 20.4166668682283  6.17128427500473 20.3532603482711  6.23425656692435 20.2264487539312  C 6.29722885884396 20.1630429567613  6.29722909812583 20.0362313671456  6.29722909812583 19.9094197728058  C 6.23425680620621 19.7826081784659  6.10831199246871 19.6557968297793  5.91939511201806 19.6557968297793  C 5.91939511201806 19.6557968297793  5.85642258081657 19.6557968297793  5.85642258081657 19.6557968297793  C 5.73047799697733 19.6557968297793  5.66750594903138 19.7192021403669  5.60453365711176 19.8460137347067  C 5.54156136519214 19.9094195318767  5.54156112591028 20.0362311214924  5.54156112591028 20.1630427158322  C 5.6045334178299 20.3532601120661  5.7304782315674 20.4800716969577  5.91939511201806 20.4800716969577  Z M 7.05289646979082 1.14130430181746  C 7.05289646979082 1.3315216980513  7.17884068766955 1.52173916987075  7.43072985534803 1.52173916987075  C 7.61964673579869 1.52173916987075  7.8085638414558 1.3315216980513  7.8085638414558 1.14130430181746  C 7.8085638414558 0.951086905583618  7.61964673579869 0.760869584935374  7.43072985534803 0.760869584935374  C 7.24181297489737 0.760869584935374  7.05289646979082 0.951086905583618  7.05289646979082 1.14130430181746  Z M 17.1914349574431 28.2789841488965  C 17.4433241251215 28.2789841488965  17.6952140059538 28.0253614515232  17.6952140059538 27.7717382628436  C 17.6952140059538 27.4547092817181  17.4433241251215 27.2644923767906  17.1914349574431 27.2644923767906  C 16.9395457897646 27.2644923767906  16.6876571100335 27.5181150741639  16.6876571100335 27.7717382628436  C 16.6876571100335 28.088767243969  16.9395457897646 28.2789841488965  17.1914349574431 28.2789841488965  Z M 15.9949616690194 30.3079701118473  C 16.2468508366979 30.3079701118473  16.498739516429 30.0543474144741  16.498739516429 29.8007242257944  C 16.498739516429 29.4836952446689  16.2468508366979 29.2934783397415  15.9949616690194 29.2934783397415  C 15.7430725013409 29.2934783397415  15.4911838216098 29.5471010371148  15.4911838216098 29.8007242257944  C 15.4911838216098 30.1177532069199  15.7430725013409 30.3079701118473  15.9949616690194 30.3079701118473  Z M 6.48614549062915 31.8297101887453  C 6.42317319870954 31.7028985944054  6.2972289855226 31.5760860363492  6.10831210507194 31.5760860363492  C 6.10831210507194 31.5760860363492  6.04533957387046 31.5760860363492  6.04533957387046 31.5760860363492  C 5.8564226934198 31.6394918335191  5.66750582704455 31.8297096974389  5.73047811896417 32.0199270936727  C 5.79345041088379 32.2101444899066  5.91939522462129 32.3369560747982  6.10831210507194 32.3369560747982  C 6.10831210507194 32.3369560747982  6.17128403572286 32.3369560747982  6.17128403572286 32.3369560747982  C 6.2972286195621 32.3369560747982  6.36020126805862 32.2735507642106  6.42317355997823 32.1467391698707  C 6.48614585189785 32.0833333727008  6.48614549062915 31.9565217830851  6.48614549062915 31.8297101887453  Z M 4.09319891378179 15.9782611324717  C 4.28211579423245 15.9782611324716  4.47103259961428 15.788043509481  4.47103259961428 15.5978261132472  C 4.47103259961428 15.4076087170133  4.28211579423245 15.2173910940227  4.09319891378179 15.2173910940227  C 3.90428203333113 15.2173910940227  3.7153652279493 15.4076087170133  3.7153652279493 15.5978261132472  C 3.7153652279493 15.788043509481  3.90428203333113 15.9782611324717  4.09319891378179 15.9782611324717  Z M 23.9924443051808 30.8152159979003  C 23.9294720132612 30.7518102007303  23.8664987642141 30.6249990929728  23.7405541803748 30.6249990929728  C 23.6775818884552 30.6249990929728  23.6775814098915 30.6249990929728  23.6146091179719 30.6249990929728  C 23.4256922375212 30.6249990929728  23.2997486248848 30.751811651029  23.2367763329652 30.8786232453689  C 23.1738040410456 31.0688406416027  23.2367772900927 31.3224633342519  23.4886664577712 31.3858691314218  C 23.5516387496908 31.3858691314218  23.5516368260522 31.3858691314218  23.6146091179719 31.3858691314218  C 23.8035259984225 31.3858691314218  23.9294720132612 31.2590565733656  23.9924443051808 31.1322449790257  C 24.0554165971004 31.0054333846859  24.0554165971004 30.9420275922401  23.9924443051808 30.8152159979003  Z M 17.7581853360542 1.01449275471863  C 17.6952130441345 1.20471015095248  17.8841301544835 1.39492754718632  18.1360193221619 1.39492754718632  C 18.3249362026126 1.39492754718632  18.5138533082697 1.20471015095248  18.5138533082697 1.01449275471863  C 18.5138533082697 0.824275358484788  18.3249362026126 0.634057962250945  18.1360193221619 0.634057962250945  C 17.9471024417113 0.634057962250945  17.7581853360542 0.824275358484788  17.7581853360542 1.01449275471863  Z M 18.8916872943775 13.5054341121973  C 18.8916872943775 13.6956515084311  19.0806044000346 13.8858691314218  19.2695212804853 13.8858691314218  C 19.4584381609359 13.8858691314218  19.6473540654919 13.6956515084311  19.6473540654919 13.5054341121973  C 19.6473540654919 13.3152167159634  19.4584381609359 13.1250003023424  19.2695212804853 13.1250003023424  C 19.0806044000346 13.1250003023424  18.8916872943775 13.3152167159634  18.8916872943775 13.5054341121973  Z M 20.9697748185208 10.5887684533386  C 20.9697748185208 10.8423916420183  21.221663498252 11.0960143393915  21.4735526659304 11.0960143393915  C 21.7884141208367 11.0960143393915  21.9773305133401 10.8423916420183  21.9773305133401 10.5887684533386  C 21.9773305133401 10.2717394722131  21.7254418336089 10.0815213579161  21.4735526659304 10.0815213579161  C 21.1586912110241 10.0815213579161  20.9697748185208 10.335145264659  20.9697748185208 10.5887684533386  Z M 19.7103265966934 0.507246377359316  C 19.7103265966934 0.760869566038974  19.899245391399 1.07789856606085  20.2141068463053 1.07789856606085  C 20.5289683012116 1.07789856606085  20.7178846937149 0.824275339588389  20.7178846937149 0.570652150908731  C 20.7178846937149 0.317028962229073  20.4659960139838 0  20.2141068463053 0  C 19.899245391399 0  19.7103265966934 0.253623188679658  19.7103265966934 0.507246377359316  Z M 17.6322414747523 20.7336958493537  C 17.6952137666719 20.7336958493537  17.6322412354705 20.7336958493537  17.5692689435508 20.7336958493537  C 17.3803520631002 20.7336958493537  17.2544072493627 20.8605059886708  17.1914349574431 20.9873175830106  C 17.1284626655234 21.1141291773504  17.1284626655234 21.1775349697963  17.1914349574431 21.3043465641361  C 17.2544072493627 21.4311581584759  17.3173802591279 21.4945658878027  17.3803525510475 21.4945658878027  C 17.4433248429671 21.4945658878027  17.4433241204297 21.4945658878027  17.5062964123494 21.4945658878027  C 17.6952132928 21.4945658878027  17.8211581065375 21.3677533297465  17.8841303984571 21.2409417354067  C 17.9471026903768 21.0507243391728  17.8841306424308 20.7971016465237  17.6322414747523 20.7336958493537  Z M 15.8690166066164 15.5978261132472  C 15.8690166066164 15.8514493019268  15.9949614250457 15.9782611324717  16.2468505927242 15.9782611324717  C 16.4357674731748 15.9782611324717  16.624684578832 15.788043509481  16.624684578832 15.5978261132472  C 16.624684578832 15.4076087170133  16.4357674731748 15.2173910940227  16.2468505927242 15.2173910940227  C 16.0579337122735 15.2173910940227  15.8690166066164 15.4076087170133  15.8690166066164 15.5978261132472  Z M 18.7657422319745 22.699274564836  C 18.4508807770682 22.699274564836  18.1360193221619 23.0163035459615  18.1360193221619 23.3333325270869  C 18.1360193221619 23.7137673195546  18.4508807770682 23.9673904893379  18.7657422319745 23.9673904893379  C 19.1435759928758 23.9673904893379  19.3954651417871 23.6503615082124  19.3954651417871 23.3333325270869  C 19.3954651417871 23.0163035459615  19.0806036868808 22.699274564836  18.7657422319745 22.699274564836  Z M 17.0654910961412 18.9583328294293  C 17.0654910961412 19.211956018109  17.3173797758724 19.4655799248518  17.5692689435508 19.4655799248518  C 17.8841303984571 19.4655799248518  18.0730467909605 19.211956018109  18.0730467909605 18.9583328294293  C 18.0730467909605 18.7047096407497  17.8211581112293 18.4510869433764  17.5692689435508 18.4510869433764  C 17.2544074886446 18.4510869433764  17.0654910961412 18.7047096407497  17.0654910961412 18.9583328294293  Z M 23.1738050028649 23.713768755681  C 23.2997495867041 23.5235513594472  23.1738030886099 23.2699262480588  22.9848862081593 23.2065204508889  C 22.9219139162397 23.2065204508889  22.9219158398782 23.2065204508889  22.8589435479586 23.2065204508889  C 22.6700266675079 23.2065204508889  22.5440806526693 23.3333330089451  22.4811083607497 23.460144603285  C 22.4181360688301 23.5869561976248  22.4181360688301 23.6503619900706  22.4811083607497 23.7771735844104  C 22.5440806526693 23.9039851787503  22.6070524613334 23.9673904893379  22.670024753253 23.9673904893379  C 22.7329970451726 23.9673904893379  22.7329975237363 23.9673904893379  22.795969815656 23.9673904893379  C 22.9848866961066 23.9673904893379  23.1108327109453 23.8405803500208  23.1738050028649 23.713768755681  Z M 17.4433238811479 14.6467391698707  C 17.4433238811479 14.8369565661046  17.632240986805 15.0271741890952  17.8211578672556 15.0271741890952  C 18.0100747477063 15.0271741890952  18.1989918533634 14.8369565661046  18.1989918533634 14.6467391698707  C 18.1989918533634 14.4565217736369  18.0100747477063 14.2663041506463  17.8211578672556 14.2663041506463  C 17.632240986805 14.2663041506463  17.4433238811479 14.4565217736369  17.4433238811479 14.6467391698707  Z M 22.9848862081593 31.7663029412767  C 22.9848862081593 31.7028971441068  22.9219143994952 31.6394918335191  22.795969815656 31.5760860363492  C 22.7329975237363 31.5760860363492  22.7329970451726 31.5760860363492  22.670024753253 31.5760860363492  C 22.4811078728023 31.5760860363492  22.355164260166 31.7028985944054  22.2921919682463 31.8297101887453  C 22.2292196763267 31.9565217830851  22.2292196763267 32.0199275755309  22.2921919682463 32.1467391698707  C 22.355164260166 32.2735507642106  22.4181360688301 32.3369560747982  22.4811083607497 32.3369560747982  C 22.5440806526693 32.3369560747982  22.544081131233 32.3369560747982  22.6070534231526 32.3369560747982  C 22.7959703036033 32.3369560747982  22.9219139162397 32.210143516742  22.9848862081593 32.0833319224022  C 23.0478585000789 31.9565203280623  23.0478585000789 31.8931145356165  22.9848862081593 31.7663029412767  Z M 25 27.7717382628436  C 25 27.4547092817181  24.6851385450937 27.1376803005926  24.3702770901874 27.1376803005926  C 23.9924433292861 27.1376803005926  23.7405541803748 27.4547092817181  23.7405541803748 27.7717382628436  C 23.7405541803748 28.088767243969  24.0554156352811 28.4057962250945  24.3702770901874 28.4057962250945  C 24.6851385450937 28.4057962250945  25 28.088767243969  25 27.7717382628436  Z M 20.7808560238152 12.3007242257944  C 20.7808560238152 12.1105068295606  20.5919401192593 11.9202892065699  20.4030232388086 11.9202892065699  C 20.2141063583579 11.9202892065699  20.0251880515997 12.1105068295606  20.0251880515997 12.3007242257944  C 20.0251880515997 12.4909416220283  20.2141063583579 12.6811592450189  20.4030232388086 12.6811592450189  C 20.5919401192593 12.6811592450189  20.7808560238152 12.4909416220283  20.7808560238152 12.3007242257944  Z M 21.2846362734271 15.4076079989501  C 21.7884146087841 15.47101379612  22.1662469058434 15.027173471032  22.1662469058434 14.5199270936727  C 22.1662469058434 14.0126807163134  21.7884146087841 13.6322461883953  21.2846362734271 13.6322461883953  C 20.7808579380702 13.6322461883953  20.4030232388086 14.0126807163134  20.4030232388086 14.5199270936727  C 20.4030232388086 15.027173471032  20.7808579380702 15.4076079989501  21.2846362734271 15.4076079989501  Z M 24.0554156352811 25.4257233187672  C 23.7405541803748 25.4257233187672  23.5516377878715 25.6793484348797  23.5516377878715 25.9329716235593  C 23.5516377878715 26.2500006046848  23.8035264676027 26.4402175096122  24.0554156352811 26.4402175096122  C 24.3702770901874 26.4402175096122  24.5591934826907 26.186594812239  24.5591934826907 25.9329716235593  C 24.5591934826907 25.6793484348797  24.3073048029596 25.4257233187672  24.0554156352811 25.4257233187672  Z M 20.6549133636145 16.8659420377491  C 20.6549133636145 16.422101471732  20.2770779511992 16.1050719993001  19.8992441902979 16.1050719993001  C 19.4584381609359 16.1050719993001  19.1435762180823 16.4855072452814  19.1435762180823 16.8659420377491  C 19.1435762180823 17.3097826037662  19.5214104293965 17.6268108668284  19.8992441902979 17.6268108668284  C 20.3400502196598 17.6268108668284  20.6549133636145 17.2463768302167  20.6549133636145 16.8659420377491  Z M 23.2367763329652 2.98007230164248  C 22.8589425720639 2.98007230164248  22.4811083607497 3.29710147173195  22.4811083607497 3.74094203774906  C 22.4811083607497 4.18478260376616  22.8589425720639 4.50181147151323  23.2367763329652 4.50181147151323  C 23.6146100938665 4.50181147151323  23.9924443051808 4.12137683021674  23.9924443051808 3.74094203774906  C 23.9924443051808 3.29710147173195  23.6146100938665 2.98007230164248  23.2367763329652 2.98007230164248  Z M 21.7254403885341 1.45833328294293  C 21.6624680966145 1.83876807541062  21.9773295374454 2.09239124519388  22.3551632983467 2.09239124519388  C 22.732997059248 2.09239124519388  22.9848862081593 1.77536226406841  22.9848862081593 1.45833328294293  C 22.9848862081593 1.07789849047525  22.670024753253 0.824275320691989  22.3551632983467 0.824275320691989  C 21.9773295374454 0.824275320691989  21.7254403885341 1.14130430181746  21.7254403885341 1.45833328294293  Z M 24.5591934826907 29.4836952446689  C 24.5591934826907 29.2300720559893  24.3702770901874 28.976449358616  24.0554156352811 28.976449358616  C 23.7405541803748 28.976449358616  23.5516377878715 29.2300720559893  23.5516377878715 29.4836952446689  C 23.5516377878715 29.8007242257944  23.8035264676027 29.9909411307219  24.0554156352811 29.9909411307219  C 24.3702770901874 29.9909411307219  24.5591934826907 29.7373184333486  24.5591934826907 29.4836952446689  Z M 23.2367763329652 24.5380436228594  C 23.1738040410456 24.7282610190932  23.2367772900927 24.9818837117424  23.4886664577712 25.0452895089123  C 23.5516387496908 25.0452895089123  23.5516368260522 25.0452895089123  23.6146091179719 25.0452895089123  C 23.8035259984225 25.0452895089123  23.9294720132612 24.9184769508561  23.9924443051808 24.7916653565163  C 24.0554165971004 24.6014479602824  23.9924433480533 24.3478252676333  23.7405541803748 24.2844194704634  C 23.6775818884552 24.2844194704634  23.6775814098915 24.2844194704634  23.6146091179719 24.2844194704634  C 23.4256922375212 24.2844194704634  23.2997486248848 24.4112320285196  23.2367763329652 24.5380436228594  Z M 22.5440820930523 9.06702898112547  C 22.7959712607308 9.06702898112547  23.0478599404619 8.81340567906742  23.0478599404619 8.55978249038776  C 23.0478599404619 8.24275350926229  22.7959712607308 8.05253599965004  22.5440820930523 8.05253599965004  C 22.229220638146 8.05253599965004  22.0403018434404 8.3061593017081  22.0403018434404 8.55978249038776  C 22.0403018434404 8.87681147151323  22.2921929253738 9.06702898112547  22.5440820930523 9.06702898112547  Z M 23.0478599404619 6.91123154666138  C 23.4256937013632 6.91123154666138  23.6775828502745 6.59420256553591  23.6775828502745 6.27717358441044  C 23.6775828502745 5.89673879194275  23.3627213953682 5.64311562215949  23.0478599404619 5.64311562215949  C 22.6700261795606 5.64311562215949  22.4181370306493 5.96014460328497  22.4181370306493 6.27717358441044  C 22.4181370306493 6.59420256553591  22.7329984855556 6.91123154666138  23.0478599404619 6.91123154666138  Z M 13.2871536372657 5.64311562215949  C 13.2871536372657 5.96014460328497  13.602015092172 6.27717358441044  13.9168765470783 6.27717358441044  C 14.2947103079796 6.27717358441044  14.5465994568909 5.96014460328497  14.5465994568909 5.64311562215949  C 14.5465994568909 5.26268082969181  14.2317380019846 5.00905796225095  13.9168765470783 5.00905796225095  C 13.602015092172 5.00905796225095  13.2871536372657 5.32608664103402  13.2871536372657 5.64311562215949  Z M 12.1536516789424 7.92572452813681  C 12.1536516789424 8.24275350926229  12.4055408278537 8.55978249038776  12.783374588755 8.55978249038776  C 13.1612083496563 8.55978249038776  13.4130974985676 8.24275350926229  13.4130974985676 7.92572452813681  C 13.4130974985676 7.60869554701134  13.0982360436613 7.29166656588587  12.783374588755 7.29166656588587  C 12.4055408278537 7.29166656588587  12.1536516789424 7.60869554701134  12.1536516789424 7.92572452813681  Z M 11.272039845425 10.2083334341141  C 11.272039845425 10.6521740001312  11.5869017882786 10.9692022631935  12.0277078176406 10.9692022631935  C 12.4685138470025 10.9692022631935  12.783374588755 10.5887682265818  12.783374588755 10.2083334341141  C 12.783374588755 9.82789864164645  12.4055415785419 9.44746339566516  12.0277078176406 9.44746339566516  C 11.6498740567392 9.44746339566516  11.272039845425 9.76449286809703  11.272039845425 10.2083334341141  Z M 22.229220638146 22.8894914697634  C 22.2921929300656 22.6358682810838  22.1662473937907 22.4456513808804  21.9773305133401 22.3822455837105  C 21.9143582214204 22.3822455837105  21.9143577428567 22.3822455837105  21.8513854509371 22.3822455837105  C 21.6624685704864 22.3822455837105  21.5365249578501 22.5090581417667  21.4735526659304 22.6358697361066  C 21.4105803740108 22.8260871323404  21.4735512208556 23.0797098249896  21.7254403885341 23.1431156221595  C 21.7884126804537 23.1431156221595  21.7884131590175 23.1431156221595  21.8513854509371 23.1431156221595  C 22.0403023313877 23.1431156221595  22.1662483462264 23.0163030641033  22.229220638146 22.8894914697634  Z M 11.397984907828 21.8749996976576  C 11.5869017882786 21.8749996976576  11.7758176928346 21.7481890764824  11.7758176928346 21.4945658878027  C 11.7758176928346 21.3043484915689  11.5869017882786 21.1141296592086  11.397984907828 21.1141296592086  C 11.2090680273773 21.1141296592086  11.0201509217202 21.3043484915689  11.0201509217202 21.4945658878027  C 11.0201509217202 21.6847832840365  11.2090680273773 21.8749996976576  11.397984907828 21.8749996976576  Z M 14.0428204083802 16.8659420377491  C 14.2317372888308 16.8659420377491  14.4206543944879 16.6757244147584  14.4206543944879 16.4855070185246  C 14.4206543944879 16.2952896222907  14.2317372888308 16.1050719993001  14.0428204083802 16.1050719993001  C 13.8539035279295 16.1050719993001  13.6649864222724 16.2952896222907  13.6649864222724 16.4855070185246  C 13.6649864222724 16.6757244147584  13.8539035279295 16.8659420377491  14.0428204083802 16.8659420377491  Z M 11.5239287691298 25.8061595473613  C 11.5239287691298 25.9963769435951  11.7128458747869 26.1865933572162  11.9017627552376 26.1865933572162  C 12.0906796356883 26.1865933572162  12.2795967413454 25.9963769435951  12.2795967413454 25.8061595473613  C 12.2795967413454 25.6159421511275  12.0906796356883 25.4257233187672  11.9017627552376 25.4257233187672  C 11.7128458747869 25.4257233187672  11.5239287691298 25.6159421511275  11.5239287691298 25.8061595473613  Z M 13.8539040158768 19.7192028678783  C 13.8539040158768 19.9094202641122  14.0428211215339 20.0996378871028  14.2317380019846 20.0996378871028  C 14.4206548824353 20.0996378871028  14.6095707869912 19.9094202641122  14.6095707869912 19.7192028678783  C 14.6095707869912 19.5289854716445  14.4206548824353 19.3387678486538  14.2317380019846 19.3387678486538  C 14.0428211215339 19.3387678486538  13.8539040158768 19.5289854716445  13.8539040158768 19.7192028678783  Z M 10.7052894668139 12.6811592450189  C 10.7052894668139 13.1884056223782  11.0831229649744 13.5688401502963  11.5869013003313 13.5688401502963  C 12.0906796356883 13.5688401502963  12.4685131338487 13.1884056223782  12.4685131338487 12.6811592450189  C 12.4685131338487 12.1739128676596  12.0906796356883 11.7934783397415  11.5869013003313 11.7934783397415  C 11.0831229649744 11.7934783397415  10.7052894668139 12.1739128676596  10.7052894668139 12.6811592450189  Z M 11.7758176928346 17.6268108668284  C 12.0906791477409 17.6268108668284  12.4055406026472 17.309781885703  12.4055406026472 16.9927529045775  C 12.4055406026472 16.6123181121098  12.0906791477409 16.3586949423265  11.7758176928346 16.3586949423265  C 11.4609562379283 16.3586949423265  11.146094783022 16.675723923452  11.146094783022 16.9927529045775  C 11.146094783022 17.3731876970452  11.4609562379283 17.6268108668284  11.7758176928346 17.6268108668284  Z M 14.6725433181927 3.4873187923802  C 14.6725433181927 3.80434777350567  14.924433199025 3.99456528311791  15.1763223667035 3.99456528311791  C 15.4911838216098 3.99456528311791  15.6801002141131 3.80434777350567  15.6801002141131 3.4873187923802  C 15.6801002141131 3.17028981125473  15.4282115343819 2.98007230164248  15.1763223667035 2.98007230164248  C 14.8614609117972 2.98007230164248  14.6725433181927 3.23369560370054  14.6725433181927 3.4873187923802  Z M 11.7758176928346 23.0163035459615  C 11.9647345732853 23.0163035459615  12.1536516789424 22.8894929247862  12.1536516789424 22.6358697361066  C 12.1536516789424 22.4456523398727  11.9647345732853 22.2554335075125  11.7758176928346 22.2554335075125  C 11.586900812384 22.2554335075125  11.397984907828 22.4456523398727  11.397984907828 22.6358697361066  C 11.397984907828 22.8260871323404  11.586900812384 23.0163035459615  11.7758176928346 23.0163035459615  Z M 21.9773305133401 32.5271729797256  C 21.9773305133401 32.4637671825557  21.914358704676 32.4003618719681  21.7884141208367 32.3369560747982  C 21.7254418289171 32.3369560747982  21.7254413503534 32.3369560747982  21.6624690584338 32.3369560747982  C 21.4735521779831 32.3369560747982  21.3476085653467 32.4637686328544  21.2846362734271 32.5905802271942  C 21.2216639815075 32.7173918215341  21.2216639815075 32.7807976139799  21.2846362734271 32.9076092083197  C 21.3476085653467 33.0344208026595  21.4105803740108 33.0978261132472  21.4735526659304 33.0978261132472  C 21.5365249578501 33.0978261132472  21.5365254364138 33.0978261132472  21.5994977283334 33.0978261132472  C 21.7884146087841 33.0978261132472  21.9143582214204 32.971013555191  21.9773305133401 32.8442019608511  C 22.0403028052597 32.7173903665113  22.0403028052597 32.6539845740655  21.9773305133401 32.5271729797256  Z M 15.8060452765161 20.9873175830106  C 15.7430729845964 21.1775349792445  15.8060447885687 21.3677542934629  15.9949616690194 21.4945658878027  C 16.057933960939 21.4945658878027  16.0579344395027 21.4945658878027  16.1209067314224 21.4945658878027  C 16.309823611873 21.4945658878027  16.4357672245094 21.3677533297465  16.498739516429 21.2409417354067  C 16.5617118083486 21.1141301410668  16.5617118083486 21.050724348621  16.498739516429 20.9239127542812  C 16.4357672245094 20.7971011599414  16.3727954158453 20.7336958493537  16.3098231239257 20.7336958493537  C 16.2468508320061 20.7336958493537  16.2468503534423 20.7336958493537  16.1838780615227 20.7336958493537  C 15.994961181072 20.7336958493537  15.8690175684357 20.8605059886708  15.8060452765161 20.9873175830106  Z M 11.4609562379283 15.7246369800756  C 11.9017622672903 15.7246369800756  12.2166242101439 15.3442029434639  12.2166242101439 14.9637681509962  C 12.2166242101439 14.5199275849791  11.8387899988296 14.2028981125473  11.4609562379283 14.2028981125473  C 11.0201502085664 14.2028981125473  10.7052894668139 14.5833333585285  10.7052894668139 14.9637681509962  C 10.7052894668139 15.4076087170133  11.083122477027 15.7246369800756  11.4609562379283 15.7246369800756  Z " fill-rule="nonzero" fill="#ffffff" stroke="none" transform="matrix(1 0 0 1 72 11 )" />
  </g>
</svg>